<?xml version="1.0" standalone="no"?>
<!DOCTYPE svg PUBLIC "-//W3C//DTD SVG 20010904//EN"
 "http://www.w3.org/TR/2001/REC-SVG-20010904/DTD/svg10.dtd">
<svg version="1.0" xmlns="http://www.w3.org/2000/svg"
 width="512.000000pt" height="512.000000pt" viewBox="0 0 512.000000 512.000000"
 preserveAspectRatio="xMidYMid meet">
<metadata>
Created by potrace 1.14, written by Peter Selinger 2001-2017
</metadata>
<g transform="translate(0.000000,512.000000) scale(0.100000,-0.100000)"
fill="#000000" stroke="none">
<path d="M2440 3953 c-73 -7 -229 -44 -290 -68 -169 -66 -352 -223 -418 -358
-56 -113 -76 -213 -69 -342 6 -116 20 -173 62 -257 79 -156 210 -269 440 -379
57 -28 231 -92 387 -143 417 -137 539 -207 604 -348 27 -58 29 -72 29 -178 0
-107 -2 -119 -29 -173 -58 -114 -171 -196 -324 -234 -48 -12 -111 -17 -222
-18 -185 0 -271 17 -390 76 -171 86 -261 212 -285 402 l-6 47 -181 0 -180 0 7
-67 c38 -356 289 -609 713 -720 102 -27 117 -28 332 -27 209 0 232 2 321 26
201 54 298 107 419 228 139 138 190 265 190 470 0 200 -58 348 -190 481 -154
157 -305 230 -790 383 -96 30 -211 73 -255 94 -215 105 -308 239 -292 418 19
201 156 337 387 384 91 18 293 14 382 -9 240 -62 362 -204 393 -458 l7 -53
179 0 179 0 0 33 c0 18 -5 60 -11 93 -65 369 -352 626 -769 689 -87 14 -242
17 -330 8z"/>
</g>
</svg>
