<?xml version="1.0" encoding="utf-8"?><svg viewBox="0 0 15 17" xmlns="http://www.w3.org/2000/svg" xmlns:xlink="http://www.w3.org/1999/xlink"><style>:root>svg{display:none}:root>svg:target{display:block}</style><svg fill="none" viewBox="0 0 7 17" id="facebook" xmlns="http://www.w3.org/2000/svg"><path d="M7 .128v2.69H5.737c-.465 0-.78.122-.944.366-.165.244-.247.61-.247 1.098v1.94h2.381l-.32 3.02H4.547V17H2.062V9.241H0v-3.02h2.062V3.99c0-1.269.281-2.25.843-2.946C3.466.348 4.216 0 5.155 0 5.95 0 6.566.043 7 .128z" fill="#000"/></svg><svg fill="none" viewBox="0 0 14 13" id="linked-in" xmlns="http://www.w3.org/2000/svg"><path d="M3.17 4.286v8.346H.179V4.286h2.99zm.195-2.581a1.3 1.3 0 01-.472 1.026c-.314.272-.72.408-1.219.408h-.016c-.499 0-.9-.136-1.203-.408A1.319 1.319 0 010 1.705 1.3 1.3 0 01.471.678c.315-.271.721-.407 1.22-.407.498 0 .899.136 1.202.407.304.272.46.614.472 1.027zM13.93 7.848v4.784h-2.975V8.164c0-.593-.124-1.056-.374-1.388-.249-.332-.634-.498-1.154-.498-.379 0-.693.095-.942.287-.25.19-.445.432-.586.724-.065.171-.097.398-.097.68v4.663h-2.99c.01-2.244.015-4.06.015-5.449v-2.49l-.016-.407h2.99v1.207h-.015c.119-.181.243-.337.373-.468.13-.13.298-.277.504-.438.206-.16.472-.281.797-.362.325-.08.672-.126 1.04-.136 1.03 0 1.858.317 2.487.951.628.634.943 1.57.943 2.808z" fill="#000"/></svg><svg fill="none" viewBox="0 0 12 12" id="paper-plane" xmlns="http://www.w3.org/2000/svg"><path d="M0 7.884a.327.327 0 01.167-.334L11.357.086a.349.349 0 01.215-.071.35.35 0 01.215.071c.119.08.17.203.155.37l-1.863 11.202a.457.457 0 01-.191.25.356.356 0 01-.18.048.451.451 0 01-.143-.024l-3.618-1.445-.764 1.278a.374.374 0 01-.335.191.348.348 0 01-.322-.19L3.153 9.364.239 8.207A.376.376 0 010 7.884zm1.17-.131l2.257.92a.15.15 0 00.06.035l.036.024 6.293-6.735L1.17 7.753zm2.64 1.242l1.038 1.815 6.019-9.398-7.058 7.583zm2.185.74c.095.016.175.032.239.048l3.164 1.29 1.493-8.933-4.896 7.595z" fill="#fff"/></svg><svg fill="none" viewBox="0 0 12 12" id="phone" xmlns="http://www.w3.org/2000/svg"><path d="M10.47 7.053a5.808 5.808 0 01-1.393-.326c-.59-.217-1.233-.054-1.715.38l-.375.38c-.965-.651-1.822-1.465-2.465-2.497l.375-.38c.429-.434.59-1.14.375-1.737a6.013 6.013 0 01-.322-1.41A1.624 1.624 0 003.343.05H1.575A1.65 1.65 0 00.503.648c-.268.326-.375.76-.375 1.194.16 1.737.804 3.474 1.715 4.94a11.342 11.342 0 003.375 3.42 10.584 10.584 0 004.877 1.736h.16c.429 0 .858-.163 1.126-.488.268-.326.482-.706.482-1.14V8.68c0-.814-.59-1.52-1.393-1.628zm.321 1.628v1.629a.496.496 0 01-.16.38c-.108.108-.215.163-.43.163a9.997 9.997 0 01-4.393-1.574c-1.233-.76-2.25-1.846-3.054-3.094A10.296 10.296 0 011.2 1.734c0-.163.053-.272.107-.38.107-.109.268-.218.428-.218h1.608c.268 0 .482.218.536.489.053.543.214 1.14.428 1.628a.762.762 0 01-.107.597l-.696.652a.583.583 0 00-.107.651 8.85 8.85 0 003.429 3.474c.214.109.482.109.643-.108l.697-.706c.16-.163.375-.217.589-.109.536.218 1.072.326 1.607.435a.583.583 0 01.43.542z" fill="#fff"/></svg><svg fill="none" viewBox="0 0 10 15" id="pinterest" xmlns="http://www.w3.org/2000/svg"><path d="M.385 5.354c0-.643.09-1.248.27-1.816.18-.568.428-1.067.746-1.495A5.42 5.42 0 012.494.933 4.71 4.71 0 013.818.226 4.19 4.19 0 015.272.001c.754 0 1.457.198 2.109.595.651.396 1.178.975 1.581 1.736.403.76.605 1.618.605 2.572 0 .579-.043 1.141-.129 1.688a7.33 7.33 0 01-.437 1.591c-.206.515-.446.96-.72 1.335a3.464 3.464 0 01-1.029.932 2.395 2.395 0 01-1.363.338c-.326 0-.647-.097-.965-.29a1.706 1.706 0 01-.694-.787c-.043.235-.107.573-.193 1.012-.086.44-.146.724-.18.852-.034.129-.082.343-.142.643-.06.3-.124.51-.192.627a2.794 2.794 0 00-.22.563 2.555 2.555 0 01-.333.707 7.398 7.398 0 00-.45.772l-.09.048-.065-.096c-.077-.944-.116-1.506-.116-1.688 0-.547.052-1.163.155-1.849.103-.686.261-1.549.476-2.588.214-1.04.338-1.645.372-1.817-.154-.385-.231-.89-.231-1.51 0-.504.124-.97.373-1.4.249-.428.566-.648.952-.658.291 0 .518.123.681.37.163.246.245.551.245.916 0 .396-.103.964-.31 1.704-.205.74-.312 1.302-.32 1.688 0 .375.107.685.32.932.215.246.477.37.785.37.266 0 .51-.075.733-.225.223-.15.412-.354.566-.611a4.8 4.8 0 00.399-.852c.111-.311.201-.638.27-.98a8.57 8.57 0 00.141-.998c.026-.321.043-.621.052-.9 0-1.029-.262-1.832-.785-2.411s-1.208-.868-2.057-.868c-.952 0-1.75.386-2.392 1.157-.643.772-.965 1.752-.965 2.942 0 .268.03.525.09.772.06.246.125.44.193.578.069.14.133.279.193.418.06.14.09.23.09.274 0 .16-.034.375-.103.643-.068.268-.158.402-.27.402-.008 0-.047-.006-.116-.017a1.562 1.562 0 01-.655-.498 2.56 2.56 0 01-.438-.852 7.29 7.29 0 01-.231-.964 5.899 5.899 0 01-.077-.965z" fill="#000"/></svg><svg fill="none" viewBox="0 0 15 10" id="twitter" xmlns="http://www.w3.org/2000/svg"><path d="M14.894 1.287a5.98 5.98 0 01-1.525 1.261v.312c0 .66-.119 1.315-.356 1.965A6.66 6.66 0 0111.93 6.71a7.677 7.677 0 01-1.745 1.586c-.678.451-1.492.822-2.44 1.111a9.905 9.905 0 01-3.067.407C2.97 9.814 1.412 9.448 0 8.716c.215.018.457.027.729.027 1.423 0 2.688-.348 3.795-1.044-.666-.009-1.26-.172-1.779-.488-.52-.316-.881-.718-1.084-1.206a4.137 4.137 0 001.39-.04c-.713-.119-1.3-.399-1.763-.841C.825 4.68.593 4.16.593 3.564v-.026c.43.19.892.293 1.39.311a2.864 2.864 0 01-1-.867A1.978 1.978 0 01.61 1.816c0-.443.141-.854.424-1.234.768.75 1.694 1.351 2.778 1.803 1.085.452 2.26.7 3.525.746a1.943 1.943 0 01-.085-.556c0-.678.3-1.252.898-1.721.599-.47 1.316-.71 2.152-.719.893 0 1.638.258 2.237.773A7.1 7.1 0 0014.487.31c-.237.579-.689 1.03-1.355 1.356a7.688 7.688 0 001.762-.38z" fill="#000"/></svg></svg>