<?xml version="1.0" encoding="utf-8"?><svg viewBox="0 0 55 55" xmlns="http://www.w3.org/2000/svg" xmlns:xlink="http://www.w3.org/1999/xlink"><style>:root>svg{display:none}:root>svg:target{display:block}</style><svg fill="none" viewBox="0 0 25 25" id="black-paper-plane" xmlns="http://www.w3.org/2000/svg"><g clip-path="url(#aclip0_1_218)"><path d="M0 16.425c-.033-.298.083-.53.348-.696L23.66.179c.132-.099.281-.149.447-.149.166 0 .315.05.448.15.249.165.357.422.323.77l-3.88 23.337a.952.952 0 01-.399.522.74.74 0 01-.373.1.94.94 0 01-.298-.05l-7.539-3.01-1.592 2.662c-.166.265-.398.398-.696.398a.725.725 0 01-.672-.398l-2.861-5-6.07-2.414c-.299-.133-.465-.357-.498-.672zm2.438-.273l4.702 1.915a.312.312 0 00.125.075l.074.05L20.45 4.16 2.438 16.152zm5.498 2.587l2.165 3.781L22.64 2.941 7.936 18.74zm4.553 1.542c.2.034.365.067.498.1l6.592 2.687 3.11-18.61-10.2 15.823z" fill="#000"/></g><defs><clipPath id="aclip0_1_218"><path fill="#fff" d="M0 0h25v25H0z"/></clipPath></defs></svg><svg fill="none" viewBox="0 0 50 50" id="board" xmlns="http://www.w3.org/2000/svg"><g clip-path="url(#bclip0_1_191)" stroke="#F4AB00" stroke-width="2" stroke-miterlimit="10"><path d="M31.25 28.906L25 35.156l-6.25-6.25" stroke-linejoin="bevel"/><path d="M25 35.156V19.531M17.969 6.25H7.812v42.969h34.376V6.25H32.03"/><path d="M28.125 3.906V.781h-6.25v3.125H18.75l-1.563 6.25h15.625l-1.562-6.25h-3.125z"/></g><defs><clipPath id="bclip0_1_191"><path fill="#fff" d="M0 0h50v50H0z"/></clipPath></defs></svg><svg fill="none" viewBox="0 0 55 55" id="diagrams" xmlns="http://www.w3.org/2000/svg"><g clip-path="url(#cclip0_1_280)" stroke="#F4AB00" stroke-width="2" stroke-miterlimit="10"><path d="M18.906 24.922H8.594V54.14h10.312V24.92zM46.406 33.516H36.094V54.14h10.312V33.516zM32.656.86H22.344v53.28h10.312V.86z"/></g><defs><clipPath id="cclip0_1_280"><path fill="#fff" d="M0 0h55v55H0z"/></clipPath></defs></svg><svg fill="none" viewBox="0 0 7 17" id="facebook" xmlns="http://www.w3.org/2000/svg"><path d="M7 .128v2.69H5.737c-.465 0-.78.122-.944.366-.165.244-.247.61-.247 1.098v1.94h2.381l-.32 3.02H4.547V17H2.062V9.241H0v-3.02h2.062V3.99c0-1.269.281-2.25.843-2.946C3.466.348 4.216 0 5.155 0 5.95 0 6.566.043 7 .128z" fill="#000"/></svg><svg fill="none" viewBox="0 0 25 25" id="horn" xmlns="http://www.w3.org/2000/svg"><g clip-path="url(#eclip0_1_248)"><path d="M0 10.902c0-1.094.299-2.015.896-2.761.597-.747 1.335-1.12 2.214-1.12h7.19c1.045 0 2.031-.373 2.96-1.12.929-.746 1.725-1.782 2.389-3.11h.05C16.66.952 17.903.032 19.43.032c1.692 0 3.019 1.086 3.98 3.258.963 2.173 1.452 4.71 1.468 7.613.017 2.903-.472 5.449-1.467 7.638-.995 2.19-2.322 3.276-3.98 3.259-1.527 0-2.77-.92-3.733-2.761h-.05c-1.293-2.571-2.943-3.965-4.95-4.18a.818.818 0 01-.2.05v.05a.526.526 0 00-.248.174c-.033.033-.05.066-.05.099-.066.1-.1.2-.1.299v5.498c0 .132.133.348.399.647.265.298.398.597.398.895v.796c0 .415-.158.772-.473 1.07-.315.299-.68.456-1.095.473H6.22c-.414 0-.779-.158-1.094-.473-.315-.315-.464-.672-.448-1.07v-7.015c0-.415-.157-.78-.473-1.095-.315-.315-.68-.465-1.094-.448-.88 0-1.617-.373-2.214-1.12C.299 12.943 0 12.014 0 10.903zm1.567 0c0 .664.15 1.22.448 1.667.299.448.664.672 1.095.672h5.448c-.514-.614-.771-1.393-.771-2.339 0-.945.257-1.716.771-2.314H3.11c-.415 0-.78.224-1.095.672-.315.448-.464.995-.448 1.642zm4.205 3.906c.298.481.448.995.448 1.543v7.015h3.11v-.696l-.1-.1c-.448-.547-.672-1.061-.672-1.542v-5.449c0-.265.05-.522.15-.77H5.771zm2.786-3.906c0 .664.15 1.22.448 1.667.299.448.663.672 1.095.672h.199c1.426 0 2.77.522 4.03 1.567a22.566 22.566 0 01-.323-3.906c0-1.327.107-2.62.323-3.88-1.26 1.044-2.604 1.566-4.03 1.566h-.2c-.414 0-.779.224-1.094.672-.315.448-.464.995-.448 1.642zm6.991 0c0 .78.05 1.56.15 2.339h2.189c.414 0 .78-.224 1.094-.672.315-.448.465-1.003.448-1.667-.017-.663-.166-1.21-.448-1.642-.282-.431-.646-.655-1.094-.672h-2.19c-.1.78-.149 1.551-.149 2.314zm.348 3.906c.315 1.609.788 2.92 1.418 3.93.63 1.013 1.336 1.51 2.115 1.494 1.078 0 1.999-.904 2.762-2.712.763-1.808 1.136-4.014 1.12-6.618-.017-2.604-.39-4.801-1.12-6.593-.73-1.79-1.65-2.695-2.762-2.711-.78 0-1.484.497-2.115 1.492-.63.995-1.103 2.306-1.418 3.931h1.99c.863 0 1.601.373 2.215 1.12.613.746.912 1.667.895 2.761-.016 1.095-.315 2.024-.895 2.787-.58.762-1.319 1.136-2.214 1.12h-1.99z" fill="#000"/></g><defs><clipPath id="eclip0_1_248"><path fill="#fff" d="M0 0h25v25H0z"/></clipPath></defs></svg><svg fill="none" viewBox="0 0 50 50" id="internet" xmlns="http://www.w3.org/2000/svg"><g clip-path="url(#fclip0_1_201)" stroke="#F4AB00" stroke-width="2" stroke-miterlimit="10"><path d="M25 .693C38.427.693 49.309 11.575 49.308 25c0 13.426-10.882 24.309-24.307 24.307C11.574 49.308.693 38.426.694 25.001.69 11.575 11.574.693 25 .693zM25 .781V49.22M49.219 25H.78"/><path d="M23.438.781S12.5 9.375 12.5 25c0 15.625 10.938 24.219 10.938 24.219M26.563.781S37.5 9.375 37.5 25c0 15.625-10.938 24.219-10.938 24.219"/><path d="M6.25 9.375s3.906 7.813 18.75 7.813 18.75-7.813 18.75-7.813M6.25 40.625s3.906-7.813 18.75-7.813 18.75 7.813 18.75 7.813"/></g><defs><clipPath id="fclip0_1_201"><path fill="#fff" d="M0 0h50v50H0z"/></clipPath></defs></svg><svg fill="none" viewBox="0 0 50 50" id="line-height" xmlns="http://www.w3.org/2000/svg"><path d="M22.656 41.406L34.375 8.594h.781l11.719 32.812M26.563 30.469h16.406" stroke="#F4AB00" stroke-width="2" stroke-miterlimit="10"/><path d="M3.906 42.969l5.469 5.468 5.469-5.468M14.844 7.031L9.375 1.563 3.906 7.03" stroke="#F4AB00" stroke-width="2" stroke-miterlimit="10" stroke-linejoin="bevel"/><path d="M9.375 48.438V1.562" stroke="#F4AB00" stroke-width="2" stroke-miterlimit="10"/></svg><svg fill="none" viewBox="0 0 14 13" id="linked-in" xmlns="http://www.w3.org/2000/svg"><path d="M3.17 4.286v8.346H.179V4.286h2.99zm.195-2.581a1.3 1.3 0 01-.472 1.026c-.314.272-.72.408-1.219.408h-.016c-.499 0-.9-.136-1.203-.408A1.319 1.319 0 010 1.705 1.3 1.3 0 01.471.678c.315-.271.721-.407 1.22-.407.498 0 .899.136 1.202.407.304.272.46.614.472 1.027zM13.93 7.848v4.784h-2.975V8.164c0-.593-.124-1.056-.374-1.388-.249-.332-.634-.498-1.154-.498-.379 0-.693.095-.942.287-.25.19-.445.432-.586.724-.065.171-.097.398-.097.68v4.663h-2.99c.01-2.244.015-4.06.015-5.449v-2.49l-.016-.407h2.99v1.207h-.015c.119-.181.243-.337.373-.468.13-.13.298-.277.504-.438.206-.16.472-.281.797-.362.325-.08.672-.126 1.04-.136 1.03 0 1.858.317 2.487.951.628.634.943 1.57.943 2.808z" fill="#000"/></svg><svg fill="none" viewBox="0 0 25 25" id="mail" xmlns="http://www.w3.org/2000/svg"><path d="M18.536 15.345c0 1.084.308 1.516 1.114 1.516 1.797 0 2.941-2.29 2.941-6.098 0-5.82-4.241-8.607-9.537-8.607-5.447 0-10.402 3.653-10.402 10.557 0 6.595 4.334 10.186 10.99 10.186 2.26 0 3.778-.247 6.099-1.021l.497 2.073c-2.29.744-4.739.96-6.626.96-8.73 0-13.407-4.8-13.407-12.199C.205 5.251 5.625.173 13.085.173c7.771 0 11.888 4.644 11.888 10.341 0 4.83-1.516 8.514-6.284 8.514-2.168 0-3.591-.867-3.777-2.788-.557 2.137-2.043 2.788-4.057 2.788-2.694 0-4.954-2.076-4.954-6.254 0-4.21 1.983-6.811 5.543-6.811 1.89 0 3.066.743 3.59 1.92l.898-1.642h2.601v9.104h.003zm-3.807-4.087c0-1.701-1.27-2.415-2.323-2.415-1.146 0-2.414.928-2.414 3.654 0 2.167.96 3.374 2.414 3.374 1.021 0 2.323-.65 2.323-2.446v-2.167z" fill="#000"/></svg><svg fill="none" viewBox="0 0 25 25" id="mobile" xmlns="http://www.w3.org/2000/svg"><path d="M17.51.248H7.664A2.454 2.454 0 005.21 2.702v19.677a2.455 2.455 0 002.454 2.455h9.843a2.454 2.454 0 002.455-2.454V2.702A2.454 2.454 0 0017.509.248zm-4.923 23.357c-.848 0-1.537-.55-1.537-1.23 0-.68.689-1.229 1.537-1.229s1.537.55 1.537 1.23c0 .68-.689 1.229-1.537 1.229zm4.917-3.688H7.67V2.707h9.834v17.21z" fill="#000"/></svg><svg fill="none" viewBox="0 0 55 55" id="optimization" xmlns="http://www.w3.org/2000/svg"><g clip-path="url(#kclip0_1_297)" stroke="#F4AB00" stroke-width="2" stroke-miterlimit="10"><path d="M4.297 35.234L9.453.86h36.094l5.156 34.375"/><path d="M18.047 35.234a9.453 9.453 0 0018.906 0h13.75v18.907H4.297V35.234h13.75z"/><path d="M20.623 18.906l6.875-6.875 6.875 6.875" stroke-linejoin="bevel"/><path d="M27.498 12.031V29.22"/></g><defs><clipPath id="kclip0_1_297"><path fill="#fff" d="M0 0h55v55H0z"/></clipPath></defs></svg><svg fill="none" viewBox="0 0 12 12" id="paper-plane" xmlns="http://www.w3.org/2000/svg"><path d="M0 7.884a.327.327 0 01.167-.334L11.357.086a.349.349 0 01.215-.071.35.35 0 01.215.071c.119.08.17.203.155.37l-1.863 11.202a.457.457 0 01-.191.25.356.356 0 01-.18.048.451.451 0 01-.143-.024l-3.618-1.445-.764 1.278a.374.374 0 01-.335.191.348.348 0 01-.322-.19L3.153 9.364.239 8.207A.376.376 0 010 7.884zm1.17-.131l2.257.92a.15.15 0 00.06.035l.036.024 6.293-6.735L1.17 7.753zm2.64 1.242l1.038 1.815 6.019-9.398-7.058 7.583zm2.185.74c.095.016.175.032.239.048l3.164 1.29 1.493-8.933-4.896 7.595z" fill="#fff"/></svg><svg fill="none" viewBox="0 0 28 28" id="person" xmlns="http://www.w3.org/2000/svg"><path d="M.111 26.644c-.26-.799-.027-1.449.697-1.95 2.21-1.45 4.913-2.527 8.108-3.233-1.56-1.95-2.665-4.319-3.315-7.105a20.81 20.81 0 01-.307-3.4c-.018-1.244.195-2.628.641-4.151C6.381 5.282 6.994 4 7.774 2.96 9.334 1.01 11.406.034 13.988.034c2.582 0 4.644.975 6.186 2.926.798 1.058 1.42 2.34 1.866 3.845.446 1.505.65 2.888.613 4.152a25.38 25.38 0 01-.306 3.399c-.65 2.786-1.756 5.155-3.316 7.105 3.195.706 5.898 1.784 8.109 3.233.724.501.965 1.16.724 1.978-.242.817-.808 1.226-1.7 1.226H1.784a1.7 1.7 0 01-1.06-.362 1.627 1.627 0 01-.613-.892zm1.672-.474h24.381c-2.025-1.356-4.505-2.359-7.44-3.009l-2.2-.446c-.837.558-1.682.836-2.536.836-.855 0-1.71-.278-2.564-.836l-2.173.446c-2.972.65-5.462 1.653-7.468 3.01zM7.161 9.396c-.241 1.913-.093 3.845.446 5.796.539 1.95 1.43 3.678 2.675 5.183l.278.39c1.04 1.207 2.183 1.81 3.428 1.81 1.244 0 2.387-.603 3.427-1.81l.25-.39a14.071 14.071 0 002.676-5.183c.538-1.932.687-3.864.445-5.796-.26-2.099-.966-3.891-2.117-5.378-1.152-1.486-2.712-2.229-4.681-2.229-1.97 0-3.53.743-4.681 2.23C8.155 5.504 7.44 7.296 7.16 9.395z" fill="#fff"/></svg><svg fill="none" viewBox="0 0 12 12" id="phone" xmlns="http://www.w3.org/2000/svg"><path d="M10.47 7.053a5.808 5.808 0 01-1.393-.326c-.59-.217-1.233-.054-1.715.38l-.375.38c-.965-.651-1.822-1.465-2.465-2.497l.375-.38c.429-.434.59-1.14.375-1.737a6.013 6.013 0 01-.322-1.41A1.624 1.624 0 003.343.05H1.575A1.65 1.65 0 00.503.648c-.268.326-.375.76-.375 1.194.16 1.737.804 3.474 1.715 4.94a11.342 11.342 0 003.375 3.42 10.584 10.584 0 004.877 1.736h.16c.429 0 .858-.163 1.126-.488.268-.326.482-.706.482-1.14V8.68c0-.814-.59-1.52-1.393-1.628zm.321 1.628v1.629a.496.496 0 01-.16.38c-.108.108-.215.163-.43.163a9.997 9.997 0 01-4.393-1.574c-1.233-.76-2.25-1.846-3.054-3.094A10.296 10.296 0 011.2 1.734c0-.163.053-.272.107-.38.107-.109.268-.218.428-.218h1.608c.268 0 .482.218.536.489.053.543.214 1.14.428 1.628a.762.762 0 01-.107.597l-.696.652a.583.583 0 00-.107.651 8.85 8.85 0 003.429 3.474c.214.109.482.109.643-.108l.697-.706c.16-.163.375-.217.589-.109.536.218 1.072.326 1.607.435a.583.583 0 01.43.542z" fill="#fff"/></svg><svg fill="none" viewBox="0 0 10 15" id="pinterest" xmlns="http://www.w3.org/2000/svg"><path d="M.385 5.354c0-.643.09-1.248.27-1.816.18-.568.428-1.067.746-1.495A5.42 5.42 0 012.494.933 4.71 4.71 0 013.818.226 4.19 4.19 0 015.272.001c.754 0 1.457.198 2.109.595.651.396 1.178.975 1.581 1.736.403.76.605 1.618.605 2.572 0 .579-.043 1.141-.129 1.688a7.33 7.33 0 01-.437 1.591c-.206.515-.446.96-.72 1.335a3.464 3.464 0 01-1.029.932 2.395 2.395 0 01-1.363.338c-.326 0-.647-.097-.965-.29a1.706 1.706 0 01-.694-.787c-.043.235-.107.573-.193 1.012-.086.44-.146.724-.18.852-.034.129-.082.343-.142.643-.06.3-.124.51-.192.627a2.794 2.794 0 00-.22.563 2.555 2.555 0 01-.333.707 7.398 7.398 0 00-.45.772l-.09.048-.065-.096c-.077-.944-.116-1.506-.116-1.688 0-.547.052-1.163.155-1.849.103-.686.261-1.549.476-2.588.214-1.04.338-1.645.372-1.817-.154-.385-.231-.89-.231-1.51 0-.504.124-.97.373-1.4.249-.428.566-.648.952-.658.291 0 .518.123.681.37.163.246.245.551.245.916 0 .396-.103.964-.31 1.704-.205.74-.312 1.302-.32 1.688 0 .375.107.685.32.932.215.246.477.37.785.37.266 0 .51-.075.733-.225.223-.15.412-.354.566-.611a4.8 4.8 0 00.399-.852c.111-.311.201-.638.27-.98a8.57 8.57 0 00.141-.998c.026-.321.043-.621.052-.9 0-1.029-.262-1.832-.785-2.411s-1.208-.868-2.057-.868c-.952 0-1.75.386-2.392 1.157-.643.772-.965 1.752-.965 2.942 0 .268.03.525.09.772.06.246.125.44.193.578.069.14.133.279.193.418.06.14.09.23.09.274 0 .16-.034.375-.103.643-.068.268-.158.402-.27.402-.008 0-.047-.006-.116-.017a1.562 1.562 0 01-.655-.498 2.56 2.56 0 01-.438-.852 7.29 7.29 0 01-.231-.964 5.899 5.899 0 01-.077-.965z" fill="#000"/></svg><svg fill="none" viewBox="0 0 55 47" id="shapes" xmlns="http://www.w3.org/2000/svg"><path d="M15.469 18.4l-13.75 5.96L27.5 34.671l25.781-10.313-13.75-5.958" stroke="#F4AB00" stroke-width="2" stroke-miterlimit="10"/><path d="M15.469 29.572l-13.75 5.96L27.5 45.843 53.281 35.53l-13.75-5.958M27.5 23.5l25.781-10.313L27.5 2.017 1.719 13.187 27.5 23.5z" stroke="#F4AB00" stroke-width="2" stroke-miterlimit="10"/></svg><svg fill="none" viewBox="0 0 25 25" id="share" xmlns="http://www.w3.org/2000/svg"><path d="M19.381 15.938c-1.244 0-2.375.565-3.166 1.357l-5.994-3.506c0-.452.113-.791.113-1.244 0-.452-.113-.791-.226-1.244l5.994-3.505c.904.791 2.035 1.357 3.28 1.357a4.537 4.537 0 004.522-4.524A4.537 4.537 0 0019.381.106a4.537 4.537 0 00-4.523 4.523c0 .453.113.792.226 1.244L8.977 9.38c-.791-.792-1.922-1.357-3.166-1.357a4.537 4.537 0 00-4.523 4.523A4.537 4.537 0 005.81 17.07c1.244 0 2.375-.566 3.166-1.357l5.994 3.505c0 .453-.113.792-.113 1.244a4.537 4.537 0 004.523 4.524 4.537 4.537 0 004.523-4.524 4.537 4.537 0 00-4.523-4.523zm0-13.57a2.268 2.268 0 012.262 2.261 2.268 2.268 0 01-2.262 2.262 2.268 2.268 0 01-2.262-2.262 2.268 2.268 0 012.262-2.261zM5.811 14.807a2.268 2.268 0 01-2.262-2.262 2.268 2.268 0 012.262-2.261 2.268 2.268 0 012.262 2.261 2.268 2.268 0 01-2.262 2.262zm13.57 7.916a2.268 2.268 0 01-2.262-2.262c0-.452.114-.791.34-1.13.339-.68 1.13-1.131 1.922-1.131a2.268 2.268 0 012.262 2.261 2.268 2.268 0 01-2.262 2.262z" fill="#000"/></svg><svg fill="none" viewBox="0 0 12 12" id="tick" xmlns="http://www.w3.org/2000/svg"><path d="M11.743.272c-.266-.363-.664-.363-.93 0l-6.832 9.36-2.853-3.908c-.266-.363-.664-.363-.929 0a1.116 1.116 0 000 1.272l3.317 4.543c.133.182.266.273.465.273s.331-.091.464-.273l7.298-9.994a1.116 1.116 0 000-1.273z" fill="#2C1258"/></svg><svg fill="none" viewBox="0 0 50 50" id="tick-in-circle" xmlns="http://www.w3.org/2000/svg"><path d="M10.156 25.781l9.375 9.375 18.75-18.75" stroke="#F4AB00" stroke-width="2" stroke-miterlimit="10" stroke-linejoin="bevel"/><path d="M25 .782V.001v.781zM49.218 25h-.781.781zM25 49.218v-.781.78zM1.563 25c0-3.078.607-6.125 1.784-8.969l-1.443-.598A24.999 24.999 0 000 25h1.562zm1.784-8.969a23.436 23.436 0 015.08-7.603L7.324 7.323a24.998 24.998 0 00-5.42 8.11l1.444.598zm5.08-7.603a23.436 23.436 0 017.604-5.08l-.598-1.444a25 25 0 00-8.11 5.419l1.105 1.105zm7.604-5.08A23.437 23.437 0 0125 1.562V.001a25 25 0 00-9.567 1.903l.598 1.443zM25 1.562c3.078 0 6.125.606 8.969 1.784l.598-1.443A25 25 0 0025 0v1.562zm8.969 1.784a23.438 23.438 0 017.603 5.08l1.105-1.104a24.999 24.999 0 00-8.11-5.42l-.598 1.444zm7.603 5.08a23.436 23.436 0 015.08 7.604l1.444-.598a24.998 24.998 0 00-5.419-8.11l-1.105 1.105zm5.08 7.604A23.437 23.437 0 0148.438 25h1.562a25 25 0 00-1.903-9.567l-1.443.598zM48.438 25c0 3.078-.606 6.125-1.784 8.969l1.443.598A25 25 0 0050 25h-1.562zm-1.784 8.969a23.437 23.437 0 01-5.08 7.603l1.104 1.105a25 25 0 005.42-8.11l-1.444-.598zm-5.08 7.603a23.436 23.436 0 01-7.604 5.08l.598 1.444a24.998 24.998 0 008.11-5.419l-1.105-1.105zm-7.604 5.08A23.437 23.437 0 0125 48.438v1.562c3.283 0 6.534-.646 9.567-1.903l-.598-1.443zM25 48.438c-3.078 0-6.125-.607-8.969-1.784l-.598 1.443A24.998 24.998 0 0025 50v-1.562zm-8.969-1.784a23.436 23.436 0 01-7.603-5.08l-1.105 1.104a24.998 24.998 0 008.11 5.42l.598-1.444zm-7.603-5.08a23.437 23.437 0 01-5.08-7.604l-1.444.598a25 25 0 005.419 8.11l1.105-1.105zm-5.08-7.604A23.437 23.437 0 011.562 25H.001a25 25 0 001.903 9.567l1.443-.598z" fill="#F4AB00"/></svg><svg fill="none" viewBox="0 0 15 15" id="tick-through-circle" xmlns="http://www.w3.org/2000/svg"><path d="M14.159 6.238c-.402 0-.67.271-.67.678v.611c0 3.393-2.68 6.107-6.028 6.107-3.35 0-6.029-2.714-6.029-6.107 0-3.392 2.68-6.107 6.029-6.107.87 0 1.674.204 2.478.543.335.136.737 0 .87-.339.135-.34 0-.746-.334-.882C9.537.335 8.532.063 7.46.063 3.375.063.093 3.388.093 7.527s3.282 7.464 7.368 7.464 7.368-3.325 7.368-7.464v-.61c0-.408-.268-.68-.67-.68zm-8.239.136a.642.642 0 00-.938 0 .662.662 0 000 .95l2.01 2.035a.604.604 0 00.469.204c.2 0 .335-.068.469-.204l6.698-6.785a.662.662 0 000-.95.642.642 0 00-.938 0l-6.23 6.31-1.54-1.56z" fill="#2C1258"/></svg><svg fill="none" viewBox="0 0 25 25" id="tv" xmlns="http://www.w3.org/2000/svg"><g clip-path="url(#uclip0_1_236)"><path d="M0 18.69V3.14c0-.647.224-1.194.672-1.642.448-.448 1.003-.68 1.667-.696H22.54c.647 0 1.202.232 1.667.696.464.465.688 1.012.671 1.642v15.55c0 .646-.223 1.193-.671 1.641-.448.448-1.004.68-1.667.697h-7.762v.92l4.851.622c.382.1.572.365.572.796a.795.795 0 01-.199.548c-.132.149-.323.224-.572.224H5.448a.775.775 0 01-.572-.224.667.667 0 01-.199-.548c0-.43.19-.696.572-.796l4.852-.622v-.92H2.339a2.274 2.274 0 01-1.667-.697C.207 19.867-.017 19.32 0 18.69zm1.567 0c0 .231.067.414.2.546.132.133.323.208.572.224H22.54a.775.775 0 00.572-.224.667.667 0 00.2-.547V3.14c0-.232-.067-.415-.2-.547-.132-.133-.323-.208-.572-.224H2.339a.775.775 0 00-.573.224.667.667 0 00-.199.547v15.55zm1.543-3.11V4.706c0-.232.074-.422.224-.572a.745.745 0 01.547-.224h17.116c.216 0 .398.075.548.224.15.15.224.34.224.572V15.58c0 .232-.075.415-.224.548a.904.904 0 01-.548.224H3.881a.745.745 0 01-.547-.224.745.745 0 01-.224-.548zm.771 0h17.116V4.706H3.881V15.58z" fill="#000"/></g><defs><clipPath id="uclip0_1_236"><path fill="#fff" d="M0 0h25v25H0z"/></clipPath></defs></svg><svg fill="none" viewBox="0 0 15 10" id="twitter" xmlns="http://www.w3.org/2000/svg"><path d="M14.894 1.287a5.98 5.98 0 01-1.525 1.261v.312c0 .66-.119 1.315-.356 1.965A6.66 6.66 0 0111.93 6.71a7.677 7.677 0 01-1.745 1.586c-.678.451-1.492.822-2.44 1.111a9.905 9.905 0 01-3.067.407C2.97 9.814 1.412 9.448 0 8.716c.215.018.457.027.729.027 1.423 0 2.688-.348 3.795-1.044-.666-.009-1.26-.172-1.779-.488-.52-.316-.881-.718-1.084-1.206a4.137 4.137 0 001.39-.04c-.713-.119-1.3-.399-1.763-.841C.825 4.68.593 4.16.593 3.564v-.026c.43.19.892.293 1.39.311a2.864 2.864 0 01-1-.867A1.978 1.978 0 01.61 1.816c0-.443.141-.854.424-1.234.768.75 1.694 1.351 2.778 1.803 1.085.452 2.26.7 3.525.746a1.943 1.943 0 01-.085-.556c0-.678.3-1.252.898-1.721.599-.47 1.316-.71 2.152-.719.893 0 1.638.258 2.237.773A7.1 7.1 0 0014.487.31c-.237.579-.689 1.03-1.355 1.356a7.688 7.688 0 001.762-.38z" fill="#000"/></svg><svg fill="none" viewBox="0 0 28 23" id="upload" xmlns="http://www.w3.org/2000/svg"><path d="M17.554 16.397l-2.639 2.595v-7.447c0-.677-.458-1.128-1.147-1.128-.688 0-1.147.451-1.147 1.128v7.447l-2.64-2.595a1.122 1.122 0 00-1.605 0 1.078 1.078 0 000 1.58l4.589 4.513c.115.113.23.225.344.225.115.113.344.113.46.113.114 0 .343 0 .458-.113.115-.113.23-.113.344-.225l4.59-4.513a1.078 1.078 0 000-1.58 1.122 1.122 0 00-1.607 0zm8.72-6.544a7.043 7.043 0 00-5.622-2.821h-.574C18.358 2.068 12.965-.753 7.802.601c-2.754.677-4.934 2.256-6.425 4.626C0 7.597-.46 10.304.229 12.899c.46 1.58 1.148 3.046 2.295 4.175.46.451 1.148.564 1.606.113.46-.452.574-1.129.115-1.58-.803-.903-1.491-2.03-1.72-3.272-.575-2.03-.23-4.175.917-5.98 1.147-1.805 2.868-3.16 4.934-3.61 4.245-1.129 8.72 1.466 9.752 5.641.115.451.574.903 1.147.903h1.377a4.65 4.65 0 013.786 1.918c.689 1.015 1.033 2.143.803 3.385a4.685 4.685 0 01-1.835 2.933c-.574.339-.689 1.016-.23 1.58.23.338.574.451.918.451.23 0 .46-.113.689-.226a6.866 6.866 0 002.868-4.4c.344-1.805-.344-3.498-1.377-5.077z" fill="#fff"/></svg></svg>