<svg width="22" height="22" viewBox="0 0 22 22" fill="none" xmlns="http://www.w3.org/2000/svg">
<path d="M14.5844 10.9575C14.5844 9.95286 14.2354 9.09293 13.5372 8.37775C12.8391 7.6626 11.9792 7.30501 10.9575 7.30501C9.93581 7.30501 9.07592 7.6626 8.37775 8.37775C7.67962 9.09293 7.32203 9.95286 7.30501 10.9575C7.28796 11.9622 7.64555 12.8221 8.37775 13.5372C9.10995 14.2524 9.96988 14.61 10.9575 14.61C11.9451 14.61 12.805 14.2524 13.5372 13.5372C14.2694 12.8221 14.6185 11.9622 14.5844 10.9575ZM16.5512 10.9575C16.5512 12.507 16.0063 13.8352 14.9165 14.942C13.8267 16.0488 12.507 16.5937 10.9575 16.5767C9.40796 16.5597 8.07977 16.0148 6.97296 14.942C5.86615 13.8693 5.32125 12.5411 5.33827 10.9575C5.35529 9.37389 5.90019 8.0457 6.97296 6.97296C8.0457 5.90018 9.37389 5.35529 10.9575 5.33827C12.5411 5.32125 13.8608 5.86615 14.9165 6.97296C15.9722 8.07977 16.5171 9.40796 16.5512 10.9575ZM18.1092 5.1084C18.1092 5.46599 17.9815 5.77249 17.7261 6.02791C17.4707 6.28332 17.1557 6.41104 16.781 6.41104C16.4064 6.41104 16.0999 6.28332 15.8615 6.02791C15.6231 5.77249 15.4955 5.46599 15.4784 5.1084C15.4614 4.75081 15.5891 4.4443 15.8615 4.18889C16.134 3.93348 16.4405 3.80575 16.781 3.80575C17.1216 3.80575 17.4366 3.93348 17.7261 4.18889C18.0156 4.4443 18.1433 4.75081 18.1092 5.1084ZM10.9575 1.96673C10.8894 1.96673 10.5233 1.96673 9.85918 1.96673C9.19511 1.96673 8.69278 1.96673 8.35221 1.96673C8.01167 1.96673 7.5519 1.98376 6.97296 2.01782C6.39399 2.05187 5.90871 2.09444 5.51705 2.14552C5.12542 2.19661 4.78485 2.29026 4.49539 2.42649C4.01861 2.61379 3.6014 2.88624 3.24384 3.24384C2.88624 3.60143 2.60528 4.0186 2.40094 4.49539C2.29877 4.76783 2.21364 5.1084 2.14552 5.51705C2.07741 5.92573 2.02633 6.41954 1.99227 6.9985C1.95822 7.57744 1.9497 8.02868 1.96673 8.35221C1.98376 8.67576 1.98376 9.17806 1.96673 9.85921C1.9497 10.5403 1.9497 10.9064 1.96673 10.9575C1.98376 11.0086 1.98376 11.3747 1.96673 12.0558C1.9497 12.7369 1.9497 13.2392 1.96673 13.5628C1.98376 13.8863 1.99227 14.3376 1.99227 14.9165C1.99227 15.4955 2.04336 15.9893 2.14552 16.3979C2.24769 16.8066 2.33283 17.1472 2.40094 17.4196C2.60528 17.8964 2.88624 18.3136 3.24384 18.6712C3.6014 19.0287 4.01861 19.3012 4.49539 19.4885C4.76783 19.5907 5.1084 19.6843 5.51705 19.7695C5.92573 19.8546 6.41104 19.8972 6.97296 19.8972C7.53488 19.8972 7.99462 19.9142 8.35221 19.9483C8.7098 19.9823 9.21213 19.9823 9.85918 19.9483C10.5063 19.9142 10.8724 19.9142 10.9575 19.9483C11.0426 19.9823 11.4002 19.9823 12.0303 19.9483C12.6603 19.9142 13.1626 19.9142 13.5372 19.9483C13.9119 19.9823 14.3716 19.9653 14.9165 19.8972C15.4614 19.8291 15.9552 19.7865 16.3979 19.7695C16.8407 19.7525 17.1727 19.6588 17.3941 19.4885C17.8708 19.3012 18.2965 19.0287 18.6712 18.6712C19.0458 18.3136 19.3182 17.8964 19.4885 17.4196C19.5907 17.1472 19.6758 16.8066 19.7439 16.3979C19.812 15.9893 19.8631 15.4955 19.8972 14.9165C19.9312 14.3376 19.9398 13.8863 19.9227 13.5628C19.9057 13.2392 19.9057 12.7369 19.9227 12.0558C19.9398 11.3747 19.9398 11.0086 19.9227 10.9575C19.9057 10.9064 19.9057 10.5403 19.9227 9.85921C19.9398 9.17806 19.9398 8.67576 19.9227 8.35221C19.9057 8.02868 19.8972 7.57744 19.8972 6.9985C19.8972 6.41954 19.8461 5.92573 19.7439 5.51705C19.6418 5.1084 19.5566 4.76783 19.4885 4.49539C19.3012 4.0186 19.0287 3.60143 18.6712 3.24384C18.3136 2.88624 17.8879 2.61379 17.3941 2.42649C17.1216 2.32432 16.7896 2.23066 16.3979 2.14552C16.0063 2.06038 15.5125 2.01782 14.9165 2.01782C14.3205 2.01782 13.8608 2.00079 13.5372 1.96673C13.2137 1.93268 12.7114 1.93268 12.0303 1.96673C11.3491 2.00079 10.9916 2.00079 10.9575 1.96673ZM21.8894 10.9575C21.8894 13.1371 21.8639 14.6441 21.8128 15.4784C21.7277 17.4537 21.1402 18.9862 20.0504 20.076C18.9606 21.1658 17.4366 21.7532 15.4784 21.8384C14.627 21.8894 13.12 21.915 10.9575 21.915C8.79496 21.915 7.28796 21.8894 6.43656 21.8384C4.46132 21.7362 2.92881 21.1487 1.83902 20.076C0.749231 19.0032 0.161766 17.4707 0.076626 15.4784C0.0255419 14.6441 0 13.1371 0 10.9575C0 8.77791 0.0255419 7.27094 0.076626 6.43659C0.161766 4.46132 0.749231 2.92881 1.83902 1.83902C2.92881 0.749232 4.46132 0.161767 6.43656 0.0766267C7.27094 0.025543 8.77791 0 10.9575 0C13.1371 0 14.6441 0.025543 15.4784 0.0766267C17.4537 0.178794 18.9777 0.766261 20.0504 1.83902C21.1232 2.91178 21.7107 4.4443 21.8128 6.43659C21.8639 7.27094 21.8894 8.77791 21.8894 10.9575Z" fill="black"/>
</svg>
