<svg width="23" height="20" viewBox="0 0 23 20" fill="none" xmlns="http://www.w3.org/2000/svg">
<g clip-path="url(#clip0_1_668)">
<path d="M20.1184 0.0927734H3.29655C1.50924 0.0927734 0.142456 1.53021 0.142456 3.4099V16.6784C0.142456 18.5582 1.50924 19.9956 3.29655 19.9956H20.1184C21.9057 19.9956 23.2725 18.5582 23.2725 16.6784V3.4099C23.2725 1.53021 21.9057 0.0927734 20.1184 0.0927734ZM3.29658 2.30419H20.1184C20.5389 2.30419 20.8543 2.52532 21.0646 2.96762L11.7075 9.82301L2.35037 2.96762C2.56063 2.52532 2.87604 2.30419 3.29661 2.30419H3.29658ZM20.1184 17.7842H3.29655C2.66573 17.7842 2.24517 17.3419 2.24517 16.6784V5.51076L11.0766 12.0345C11.2869 12.145 11.4972 12.2556 11.7074 12.2556C11.9177 12.2556 12.128 12.145 12.3383 12.0345L21.1697 5.51076V16.6784C21.1697 17.3419 20.7491 17.7842 20.1183 17.7842H20.1184Z" fill="#F4AB00"/>
</g>
<defs>
<clipPath id="clip0_1_668">
<rect width="23" height="20" fill="white"/>
</clipPath>
</defs>
</svg>
