<svg width="17" height="23" viewBox="0 0 17 23" fill="none" xmlns="http://www.w3.org/2000/svg">
<path d="M0 8.61065C0 6.23026 0.819554 4.20084 2.45866 2.52237C4.09776 0.843899 6.09779 0.012291 8.45869 0.02755C10.8196 0.0428088 12.8196 0.874415 14.4587 2.52237C16.0978 4.17031 16.9174 6.19973 16.9174 8.61065C16.9174 9.80082 16.7069 11.0215 16.2858 12.2727C15.8648 13.524 15.2257 14.7905 14.3685 16.0722C13.5114 17.3539 12.752 18.4297 12.0903 19.2994C11.4286 20.1692 10.6016 21.1839 9.60908 22.3436C9.30834 22.725 8.9399 22.9158 8.5038 22.9158H8.4136C7.97748 22.9158 7.60907 22.725 7.30833 22.3436C6.31582 21.1687 5.48876 20.1539 4.82711 19.2994C4.16543 18.445 3.40604 17.3692 2.54889 16.0722C1.69174 14.7752 1.05264 13.5087 0.631582 12.2727C0.210528 11.0368 0 9.8161 0 8.61065ZM1.42106 8.61065C1.42106 9.70929 1.63159 10.8537 2.05264 12.0439C2.4737 13.2341 3.11281 14.4624 3.96996 15.7289C4.82711 16.9954 5.54138 17.9719 6.11282 18.6586C6.68424 19.3452 7.43612 20.2608 8.36848 21.4052H8.4136C8.44366 21.4357 8.45869 21.4662 8.45869 21.4967L8.54892 21.4052C9.48125 20.2913 10.2331 19.3758 10.8046 18.6586C11.376 17.9414 12.0828 16.9649 12.9249 15.7289C13.767 14.4929 14.4136 13.2646 14.8647 12.0439C15.3159 10.8232 15.5339 9.67876 15.5189 8.61065C15.5189 6.64226 14.8272 4.95615 13.4437 3.55235C12.0602 2.14853 10.3985 1.45425 8.45869 1.46951C6.51883 1.48477 4.85717 2.17904 3.47369 3.55235C2.09024 4.92564 1.40602 6.61174 1.42106 8.61065ZM4.24064 8.42753C4.24064 7.23734 4.64664 6.22262 5.45867 5.3834C6.27071 4.54417 7.27071 4.13217 8.45869 4.14742C9.64666 4.1627 10.6467 4.57467 11.4587 5.3834C12.2708 6.19212 12.6843 7.20683 12.6993 8.42753C12.7144 9.64823 12.3008 10.663 11.4587 11.4717C10.6166 12.2804 9.6166 12.7 8.45869 12.7305C7.3008 12.761 6.30079 12.3414 5.45867 11.4717C4.61658 10.6019 4.21055 9.5872 4.24064 8.42753ZM4.93988 8.42753C4.93988 9.41935 5.28576 10.2662 5.97747 10.9681C6.66921 11.67 7.4963 12.0134 8.45869 11.9981C9.4211 11.9828 10.2482 11.6395 10.9399 10.9681C11.6316 10.2967 11.9775 9.44988 11.9775 8.42753C11.9775 7.40518 11.6316 6.56595 10.9399 5.90982C10.2482 5.25369 9.4211 4.90275 8.45869 4.85697C7.4963 4.81119 6.66921 5.16213 5.97747 5.90982C5.28576 6.65752 4.93988 7.49674 4.93988 8.42753Z" fill="#F4AB00"/>
</svg>
