<svg width="23" height="23" viewBox="0 0 23 23" fill="none" xmlns="http://www.w3.org/2000/svg">
<g clip-path="url(#clip0_1_665)">
<path d="M19.0876 13.9342C18.1975 13.8341 17.3074 13.6338 16.5163 13.3334C15.4284 12.9329 14.2416 13.2333 13.3515 14.0344L12.6592 14.7354C10.879 13.5337 9.29657 12.0317 8.10977 10.1291L8.80207 9.42814C9.59327 8.62705 9.88997 7.32528 9.49437 6.22378C9.19767 5.42272 8.9999 4.52149 8.90097 3.62027C8.7032 2.11822 7.41747 1.01673 5.934 1.01673H2.967C2.8681 1.01673 2.7692 1.01673 2.6703 1.01673C1.8791 1.11687 1.1868 1.5174 0.692306 2.11822C0.197815 2.71903 0 3.5201 0 4.32122C0.2967 7.52555 1.4835 10.7299 3.16477 13.4336C4.7472 15.937 6.92297 18.14 9.39547 19.7422C12.0658 21.5446 15.2305 22.6461 18.3954 22.9465C18.4943 22.9465 18.5931 22.9465 18.6921 22.9465C19.4832 22.9465 20.2745 22.6461 20.769 22.0453C21.2634 21.4445 21.659 20.7435 21.659 19.9424V16.9384C21.659 15.4363 20.5712 14.1345 19.0877 13.9343L19.0876 13.9342ZM19.681 16.9383V19.9424C19.681 20.2428 19.5821 20.4431 19.3843 20.6434C19.1865 20.8437 18.9887 20.9438 18.5931 20.9438C15.7251 20.6434 12.9559 19.642 10.4834 18.0399C8.20867 16.638 6.32957 14.6352 4.84607 12.3321C3.26367 9.82869 2.27469 7.0249 1.97799 4.12092C1.97799 3.82051 2.0769 3.62027 2.17578 3.41997C2.37357 3.21969 2.67027 3.01942 2.96697 3.01942H5.93397C6.42844 3.01942 6.82407 3.41997 6.92297 3.92065C7.02187 4.92201 7.31857 6.02351 7.71417 6.92473C7.81307 7.32528 7.71417 7.7258 7.51637 8.0262L6.23067 9.22784C5.93397 9.52825 5.83507 10.0289 6.03287 10.4295C7.51637 13.1332 9.69217 15.3362 12.3625 16.8382C12.7581 17.0385 13.2526 17.0385 13.5493 16.6379L14.835 15.3362C15.1317 15.0357 15.5273 14.9356 15.9229 15.1359C16.9119 15.5365 17.9008 15.7367 18.8898 15.937C19.2855 16.0371 19.681 16.4376 19.681 16.9383ZM13.9448 0.0153372C13.4504 -0.0848068 12.9558 0.315745 12.857 0.916559C12.758 1.41723 13.1537 1.91793 13.747 2.01805C17.4064 2.4186 20.2744 5.32253 20.7689 9.1277C20.8678 9.62838 21.2634 10.0289 21.7579 10.0289H21.8568C22.3513 9.92879 22.7469 9.42811 22.7469 8.92743C22.1535 4.22106 18.4942 0.516009 13.9449 0.0153372H13.9448ZM16.714 9.12773C16.813 9.62838 17.2085 9.92879 17.703 9.92879C17.802 9.92879 17.802 9.92879 17.9008 9.92879C18.3953 9.82866 18.7909 9.32798 18.692 8.72719C18.1975 6.32392 16.4173 4.42133 14.0437 4.02078C13.5493 3.92065 12.9559 4.22106 12.857 4.82187C12.758 5.42269 13.0547 5.92334 13.6481 6.02351C15.2305 6.32392 16.4173 7.52555 16.714 9.12773Z" fill="#F4AB00"/>
</g>
<defs>
<clipPath id="clip0_1_665">
<rect width="23" height="23" fill="white"/>
</clipPath>
</defs>
</svg>
