<svg width="10" height="15" viewBox="0 0 10 15" fill="none" xmlns="http://www.w3.org/2000/svg">
<path d="M0.384644 5.3541C0.384644 4.71108 0.474666 4.10558 0.65471 3.53758C0.834753 2.9696 1.08339 2.47125 1.40061 2.04258C1.71783 1.6139 2.0822 1.24417 2.49374 0.933377C2.90526 0.622587 3.3468 0.386816 3.81834 0.22606C4.28989 0.065308 4.77429 -0.00971106 5.27155 0.00100677C6.02603 0.00100677 6.72904 0.19927 7.38064 0.595795C8.03223 0.99232 8.55949 1.57103 8.96246 2.33192C9.36541 3.09283 9.56689 3.95019 9.56689 4.90398C9.56689 5.48269 9.52401 6.04535 9.43829 6.5919C9.35255 7.13846 9.2068 7.66894 9.00103 8.18337C8.79528 8.69777 8.55521 9.14252 8.28086 9.51762C8.00651 9.89271 7.66357 10.2035 7.25203 10.45C6.84051 10.6965 6.38611 10.809 5.88884 10.7876C5.56304 10.7876 5.24154 10.6911 4.92432 10.4982C4.60711 10.3053 4.37561 10.0428 4.22987 9.71052C4.187 9.94629 4.12271 10.2839 4.03697 10.7233C3.95123 11.1627 3.89121 11.4467 3.85692 11.5753C3.82263 11.7039 3.77547 11.9182 3.71546 12.2183C3.65544 12.5183 3.59114 12.7273 3.52255 12.8452C3.45397 12.9631 3.38109 13.1507 3.30392 13.4078C3.22677 13.6651 3.11531 13.9008 2.96957 14.1152C2.82381 14.3295 2.67377 14.5867 2.51944 14.8868L2.42943 14.935L2.36512 14.8386C2.28797 13.8955 2.24938 13.3328 2.24938 13.1507C2.24938 12.6041 2.30083 11.9879 2.40371 11.302C2.5066 10.6161 2.6652 9.75339 2.87954 8.71385C3.09387 7.67431 3.2182 7.06881 3.25249 6.89733C3.09817 6.51152 3.021 6.00783 3.021 5.38625C3.021 4.88256 3.14532 4.41637 3.39395 3.98769C3.64258 3.55902 3.9598 3.33933 4.34561 3.3286C4.63711 3.3286 4.86431 3.45185 5.02721 3.69835C5.19011 3.94483 5.27155 4.25025 5.27155 4.61464C5.27155 5.01115 5.16867 5.57915 4.96291 6.31862C4.75714 7.05808 4.64997 7.62073 4.6414 8.00654C4.6414 8.38162 4.74857 8.69242 4.96291 8.9389C5.17724 9.18539 5.43874 9.30864 5.74738 9.30864C6.01317 9.30864 6.25751 9.23362 6.48041 9.08358C6.70334 8.93354 6.89195 8.72992 7.04627 8.47271C7.2006 8.21552 7.33349 7.93152 7.44494 7.62073C7.5564 7.30994 7.64641 6.98308 7.715 6.64014C7.7836 6.29719 7.83075 5.96496 7.85648 5.64346C7.88218 5.32194 7.89934 5.02189 7.90791 4.74323C7.90791 3.7144 7.64641 2.91065 7.12343 2.33192C6.60044 1.75322 5.91457 1.46386 5.06578 1.46386C4.11412 1.46386 3.31678 1.84967 2.67377 2.62129C2.03077 3.3929 1.70925 4.3735 1.70925 5.56308C1.70925 5.831 1.73926 6.08821 1.79927 6.33469C1.85929 6.58119 1.9236 6.7741 1.99218 6.9134C2.06077 7.05273 2.12507 7.19204 2.18509 7.33137C2.24511 7.47069 2.27511 7.56179 2.27511 7.60465C2.27511 7.7654 2.24081 7.97973 2.17223 8.24765C2.10363 8.51558 2.01361 8.64954 1.90216 8.64954C1.89358 8.64954 1.855 8.64419 1.78641 8.63348C1.53778 8.53702 1.31916 8.3709 1.13054 8.13514C0.941922 7.89937 0.796173 7.61537 0.69329 7.28314C0.590408 6.95092 0.513246 6.6294 0.461805 6.31862C0.410364 6.00783 0.384644 5.68633 0.384644 5.3541Z" fill="black"/>
</svg>
